<?xml version="1.0" standalone="no"?><!DOCTYPE svg PUBLIC "-//W3C//DTD SVG 1.1//EN" "http://www.w3.org/Graphics/SVG/1.1/DTD/svg11.dtd"><svg t="1626417079866" class="icon" viewBox="0 0 1024 1024" version="1.1" xmlns="http://www.w3.org/2000/svg" p-id="6703" xmlns:xlink="http://www.w3.org/1999/xlink" width="128" height="128"><defs><style type="text/css"></style></defs><path d="M512 341.333333C512 341.333333 938.666667 341.333333 938.666667 469.333333 938.666667 469.333333 942.506667 612.693333 928 608 896 469.333333 512 469.333333 512 469.333333 512 469.333333 128 469.333333 96 608 81.493333 612.693333 85.333333 469.333333 85.333333 469.333333 85.333333 341.333333 512 341.333333 512 341.333333M512 512C853.333333 512 885.333333 608 885.333333 608 842.666667 736 810.666667 768 640 768 512 768 554.666667 704 512 704 469.333333 704 512 768 384 768 213.333333 768 181.333333 736 138.666667 608 138.666667 608 170.666667 512 512 512Z" p-id="6704" fill="#bfbfbf"></path></svg>