<?xml version="1.0" standalone="no"?><!DOCTYPE svg PUBLIC "-//W3C//DTD SVG 1.1//EN" "http://www.w3.org/Graphics/SVG/1.1/DTD/svg11.dtd"><svg t="1627696680905" class="icon" viewBox="0 0 1024 1024" version="1.1" xmlns="http://www.w3.org/2000/svg" p-id="2589" xmlns:xlink="http://www.w3.org/1999/xlink" width="200" height="200"><defs><style type="text/css"></style></defs><path d="M590.1056 778.1568A188.1728 188.1728 0 0 1 515.2 793.6c-26.6112 0-51.9424-5.504-74.9056-15.4432L450.816 844.8h128.768l10.5216-66.6432z m-223.6096-57.0112A187.9872 187.9872 0 0 1 326.4 604.8v-134.4a188.0064 188.0064 0 0 1 41.3568-117.9392l24.2368-153.4464C394.3744 183.9232 407.5136 172.8 422.9504 172.8h184.4992c15.4368 0 28.576 11.1232 30.9568 26.2144l24.2368 153.4464A188.0064 188.0064 0 0 1 704 470.4v134.4c0 43.8912-14.976 84.2816-40.096 116.3456l-25.4976 161.44c-2.3808 15.0912-15.52 26.2144-30.9568 26.2144H422.9504c-15.4368 0-28.576-11.1232-30.9568-26.2144l-25.4976-161.44z m222.528-424.5696L579.584 236.8H450.816l-9.44 59.776A188.1984 188.1984 0 0 1 515.2 281.6c26.1952 0 51.1424 5.3376 73.824 14.976zM518.4 448a32 32 0 1 0 0-64 32 32 0 0 0 0 64z m0 117.0304a32 32 0 1 0 0-64 32 32 0 0 0 0 64z m0 117.024a32 32 0 1 0 0-64 32 32 0 0 0 0 64z" fill="#ffffff" p-id="2590"></path></svg>