<?xml version="1.0" standalone="no"?><!DOCTYPE svg PUBLIC "-//W3C//DTD SVG 1.1//EN" "http://www.w3.org/Graphics/SVG/1.1/DTD/svg11.dtd"><svg t="1627696686214" class="icon" viewBox="0 0 1024 1024" version="1.1" xmlns="http://www.w3.org/2000/svg" p-id="2753" xmlns:xlink="http://www.w3.org/1999/xlink" width="200" height="200"><defs><style type="text/css"></style></defs><path d="M716.8 1024H307.2c-42.496 0-76.8-34.304-76.8-76.8V76.8c0-42.496 34.304-76.8 76.8-76.8h409.6c42.496 0 76.8 34.304 76.8 76.8v870.4c0 42.496-34.304 76.8-76.8 76.8zM307.2 51.2c-14.336 0-25.6 11.264-25.6 25.6v870.4c0 14.336 11.264 25.6 25.6 25.6h409.6c14.336 0 25.6-11.264 25.6-25.6V76.8c0-14.336-11.264-25.6-25.6-25.6H307.2z" p-id="2754" fill="#ffffff"></path><path d="M448 89.6h128v25.6h-128zM512 934.4c-35.328 0-64-28.672-64-64s28.672-64 64-64 64 28.672 64 64-28.672 64-64 64z m0-102.4c-20.992 0-38.4 17.408-38.4 38.4s17.408 38.4 38.4 38.4 38.4-17.408 38.4-38.4-17.408-38.4-38.4-38.4z" p-id="2755" fill="#ffffff"></path></svg>