<?xml version="1.0" standalone="no"?><!DOCTYPE svg PUBLIC "-//W3C//DTD SVG 1.1//EN" "http://www.w3.org/Graphics/SVG/1.1/DTD/svg11.dtd"><svg t="1660534431771" class="icon" viewBox="0 0 1024 1024" version="1.1" xmlns="http://www.w3.org/2000/svg" p-id="2775" xmlns:xlink="http://www.w3.org/1999/xlink" width="24" height="24"><defs><style type="text/css">@font-face { font-family: feedback-iconfont; src: url("//at.alicdn.com/t/font_1031158_u69w8yhxdu.woff2?t=1630033759944") format("woff2"), url("//at.alicdn.com/t/font_1031158_u69w8yhxdu.woff?t=1630033759944") format("woff"), url("//at.alicdn.com/t/font_1031158_u69w8yhxdu.ttf?t=1630033759944") format("truetype"); }
</style></defs><path d="M97 97v830h830V97H97z m774.67 774.67H152.33V152.33h719.34v719.34z m-664-249.01c0 45.82 37.18 83 82.99 83 36.08 0 66.51-23.18 77.91-55.33h171.09v-166h115.76a82.753 82.753 0 0 0 50.24 50.24v120.85c-32.15 11.45-55.34 41.83-55.34 77.91 0 45.81 37.18 83 83 83s83.01-37.19 83.01-83c0-36.08-23.19-66.51-55.34-77.91V534.58c32.15-11.45 55.34-41.83 55.34-77.91 0-45.82-37.19-83-83.01-83-36.08 0-66.51 23.18-77.91 55.33H484.33v166H368.58a82.753 82.753 0 0 0-50.24-50.24V368.58c32.15-11.4 55.33-41.83 55.33-77.91 0-45.82-37.18-83.01-83-83.01s-82.99 37.18-82.99 83.01c0 36.08 23.18 66.51 55.34 77.91v176.18c-32.17 11.4-55.35 41.83-55.35 77.9z m525.66 138.33c-15.27 0-27.66-12.39-27.66-27.66 0-15.28 12.39-27.67 27.66-27.67S761 718.06 761 733.34c0 15.26-12.4 27.65-27.67 27.65z m0-331.99c15.27 0 27.67 12.39 27.67 27.67 0 15.27-12.4 27.66-27.67 27.66s-27.66-12.4-27.66-27.66c0-15.28 12.39-27.67 27.66-27.67zM290.66 650.33c-15.27 0-27.66-12.4-27.66-27.67 0-15.27 12.39-27.66 27.66-27.66 15.28 0 27.67 12.4 27.67 27.66 0 15.27-12.39 27.67-27.67 27.67z m0-387.33c15.28 0 27.67 12.4 27.67 27.67s-12.39 27.67-27.67 27.67c-15.27 0-27.66-12.4-27.66-27.67S275.4 263 290.66 263z m0 0" p-id="2776" fill="#ffffff"></path></svg>