<?xml version="1.0" standalone="no"?><!DOCTYPE svg PUBLIC "-//W3C//DTD SVG 1.1//EN" "http://www.w3.org/Graphics/SVG/1.1/DTD/svg11.dtd"><svg t="1660549772054" class="icon" viewBox="0 0 1024 1024" version="1.1" xmlns="http://www.w3.org/2000/svg" p-id="6685" xmlns:xlink="http://www.w3.org/1999/xlink" width="24" height="24"><defs><style type="text/css">@font-face { font-family: feedback-iconfont; src: url("//at.alicdn.com/t/font_1031158_u69w8yhxdu.woff2?t=1630033759944") format("woff2"), url("//at.alicdn.com/t/font_1031158_u69w8yhxdu.woff?t=1630033759944") format("woff"), url("//at.alicdn.com/t/font_1031158_u69w8yhxdu.ttf?t=1630033759944") format("truetype"); }
</style></defs><path d="M842.472727 60.509091h-204.8c-18.618182 0-37.236364 18.618182-37.236363 37.236364s18.618182 37.236364 37.236363 37.236363h204.8c32.581818 0 55.854545 23.272727 55.854546 55.854546v651.636363c0 32.581818-23.272727 55.854545-55.854546 55.854546h-651.636363c-32.581818 0-55.854545-23.272727-55.854546-55.854546v-200.145454c0-18.618182-18.618182-37.236364-37.236363-37.236364s-37.236364 18.618182-37.236364 37.236364v200.145454c0 69.818182 60.509091 130.327273 130.327273 130.327273h651.636363c69.818182 0 130.327273-60.509091 130.327273-130.327273v-651.636363c0-69.818182-60.509091-130.327273-130.327273-130.327273z" p-id="6686" fill="#ffffff"></path><path d="M330.472727 609.745455c153.6 0 279.272727-125.672727 279.272728-279.272728s-125.672727-279.272727-279.272728-279.272727-279.272727 125.672727-279.272727 279.272727 125.672727 279.272727 279.272727 279.272728z m0-484.072728c111.709091 0 204.8 93.090909 204.8 204.8s-93.090909 204.8-204.8 204.8-204.8-93.090909-204.8-204.8 93.090909-204.8 204.8-204.8zM781.963636 535.272727h-144.290909c-18.618182 0-37.236364 18.618182-37.236363 37.236364s18.618182 37.236364 37.236363 37.236364h144.290909c18.618182 0 37.236364-18.618182 37.236364-37.236364s-18.618182-37.236364-37.236364-37.236364z" p-id="6687" fill="#ffffff"></path><path d="M223.418182 367.709091h107.054545c18.618182 0 37.236364-18.618182 37.236364-37.236364v-125.672727c0-18.618182-18.618182-37.236364-37.236364-37.236364-23.272727 0-37.236364 18.618182-37.236363 37.236364v88.436364h-69.818182c-18.618182 0-37.236364 18.618182-37.236364 37.236363s18.618182 37.236364 37.236364 37.236364zM781.963636 712.145455h-530.618181c-18.618182 0-37.236364 18.618182-37.236364 37.236363s18.618182 37.236364 37.236364 37.236364h530.618181c18.618182 0 37.236364-18.618182 37.236364-37.236364s-18.618182-37.236364-37.236364-37.236363z" p-id="6688" fill="#ffffff"></path></svg>